<?xml version="1.0" ?><!DOCTYPE svg  PUBLIC '-//W3C//DTD SVG 1.1//EN'  'http://www.w3.org/Graphics/SVG/1.1/DTD/svg11.dtd'><svg height="1.6699in" style="shape-rendering:geometricPrecision; text-rendering:geometricPrecision; image-rendering:optimizeQuality; fill-rule:evenodd; clip-rule:evenodd" version="1.1" viewBox="0 0 6779 6779" width="1.6699in" xml:space="preserve" xmlns="http://www.w3.org/2000/svg" xmlns:xlink="http://www.w3.org/1999/xlink"><defs><style type="text/css">
   <![CDATA[
    .fil1 {fill:#FEFEFE}
    .fil4 {fill:#DCDDDD}
    .fil0 {fill:#C9CACA}
    .fil2 {fill:#CC413C}
    .fil3 {fill:#FEFEFE;fill-opacity:0.501961}
   ]]>
  </style></defs><g id="Layer_x0020_1"><g id="_1853992358192"><circle class="fil0" cx="3390" cy="3390" r="3390"/><path class="fil1" d="M6597 3390c0,1771 -1436,3207 -3207,3207 -1772,0 -3208,-1436 -3208,-3207l6415 0z"/><path class="fil1" d="M3390 182c1771,0 3207,1436 3207,3208l-6415 0c0,-1772 1436,-3208 3208,-3208z"/><path class="fil2" d="M6587 3133c6,85 10,170 10,257 0,69 -3,138 -7,207l-6401 0c-4,-69 -7,-138 -7,-207 0,-87 4,-172 11,-257l6394 0z"/><circle class="fil2" cx="3390" cy="3390" r="1069"/><circle class="fil1" cx="3390" cy="3390" r="704"/><path class="fil3" d="M522 2634c0,0 56,-1094 1320,-1892 1263,-797 1205,-131 903,136 -200,177 -1657,181 -2223,1756z"/><path class="fil4" d="M1116 5426c675,838 3585,891 5294,-1475 -878,3373 -4551,2683 -5294,1475z"/></g></g></svg>