<?xml version="1.0" ?><!DOCTYPE svg  PUBLIC '-//W3C//DTD SVG 1.1//EN'  'http://www.w3.org/Graphics/SVG/1.1/DTD/svg11.dtd'><svg height="512px" style="shape-rendering:geometricPrecision; text-rendering:geometricPrecision; image-rendering:optimizeQuality; fill-rule:evenodd; clip-rule:evenodd" version="1.1" viewBox="0 0 512 512" width="512px" xml:space="preserve" xmlns="http://www.w3.org/2000/svg" xmlns:xlink="http://www.w3.org/1999/xlink" xmlns:xodm="http://www.corel.com/coreldraw/odm/2003"><defs><style type="text/css">
   <![CDATA[
    .fil1 {fill:white}
    .fil0 {fill:url(#id0)}
   ]]>
  </style><linearGradient gradientUnits="userSpaceOnUse" id="id0" x1="67.83" x2="474.19" y1="82.42" y2="389.98"><stop offset="0" style="stop-opacity:1; stop-color:#67C4CE"/><stop offset="1" style="stop-opacity:1; stop-color:#E62A58"/></linearGradient></defs><g id="Layer_x0020_1"><g id="_2515485150816"><path class="fil0" d="M256 0c141.39,0 256,114.61 256,256 0,141.39 -114.61,256 -256,256 -141.39,0 -256,-114.61 -256,-256 0,-141.39 114.61,-256 256,-256z"/><path class="fil1" d="M313.5 106.01c0.01,4.58 1.36,70.83 70.87,74.96 0,19.1 0.02,32.95 0.02,51.18 -5.26,0.3 -45.76,-2.64 -70.97,-25.12l-0.08 99.64c0.96,69.16 -49.93,111.24 -116.46,96.7 -114.71,-34.31 -76.59,-204.44 38.59,-186.24 0,54.93 0.03,-0.01 0.03,54.93 -47.58,-7 -63.5,32.58 -50.85,60.93 11.5,25.8 58.88,31.39 75.41,-5.01 1.87,-7.12 2.8,-15.25 2.8,-24.37l0 -197.85 50.64 0.25z"/></g></g></svg>